HIERARCHY
ROOT joint_Root
{
	OFFSET 0.0 0.0 0.0
	CHANNELS 6 Xposition Yposition Zposition Zrotation Xrotation Yrotation 
	JOINT Hips
	{
		OFFSET -17.1583 93.1646 452.98
		CHANNELS 6 Xposition Yposition Zposition Zrotation Xrotation Yrotation 
		JOINT Spine
		{
			OFFSET 15.7357 0.0 0.0
			CHANNELS 6 Xposition Yposition Zposition Zrotation Xrotation Yrotation 
			JOINT Chest
			{
				OFFSET 8.98455 -0.406207 0.0
				CHANNELS 6 Xposition Yposition Zposition Zrotation Xrotation Yrotation 
				JOINT Neck
				{
					OFFSET 16.3773 0.0 0.0
					CHANNELS 6 Xposition Yposition Zposition Zrotation Xrotation Yrotation 
					JOINT Head
					{
						OFFSET 6.45672 0.0 0.0
						CHANNELS 6 Xposition Yposition Zposition Zrotation Xrotation Yrotation 
						End Site
						{
							OFFSET 0.0 0.0 0.0
						}
					}
				}
				JOINT Shoulder_L
				{
					OFFSET 12.9942 -0.242716 4.98039
					CHANNELS 6 Xposition Yposition Zposition Zrotation Xrotation Yrotation 
					JOINT UpperArm_L
					{
						OFFSET 5.34809 0.0 0.0
						CHANNELS 6 Xposition Yposition Zposition Zrotation Xrotation Yrotation 
						JOINT LowerArm_L
						{
							OFFSET 24.3286 1.87007e-05 0.0
							CHANNELS 6 Xposition Yposition Zposition Zrotation Xrotation Yrotation 
							JOINT Hand_L
							{
								OFFSET 22.2916 0.0 0.0
								CHANNELS 6 Xposition Yposition Zposition Zrotation Xrotation Yrotation 
								End Site
								{
									OFFSET 0.0 0.0 0.0
								}
							}
						}
					}
				}
				JOINT Shoulder_R
				{
					OFFSET 12.9945 -0.242716 -4.98039
					CHANNELS 6 Xposition Yposition Zposition Zrotation Xrotation Yrotation 
					JOINT UpperArm_R
					{
						OFFSET -5.34813 0.0 0.0
						CHANNELS 6 Xposition Yposition Zposition Zrotation Xrotation Yrotation 
						JOINT LowerArm_R
						{
							OFFSET -24.3289 0.000322201 0.0
							CHANNELS 6 Xposition Yposition Zposition Zrotation Xrotation Yrotation 
							JOINT Hand_R
							{
								OFFSET -22.2915 -0.000108084 0.0
								CHANNELS 6 Xposition Yposition Zposition Zrotation Xrotation Yrotation 
								End Site
								{
									OFFSET 0.0 0.0 0.0
								}
							}
						}
					}
				}
			}
		}
		JOINT UpperLeg_L
		{
			OFFSET -2.19248 -6.46944 0.0
			CHANNELS 6 Xposition Yposition Zposition Zrotation Xrotation Yrotation 
			JOINT LowerLeg_L
			{
				OFFSET 39.0811 0.0 -1.23785e-05
				CHANNELS 6 Xposition Yposition Zposition Zrotation Xrotation Yrotation 
				JOINT Foot_L
				{
					OFFSET 40.9854 0.0 -1.26872e-05
					CHANNELS 6 Xposition Yposition Zposition Zrotation Xrotation Yrotation 
					JOINT Toes_L
					{
						OFFSET 11.7543 0.0 0.0
						CHANNELS 6 Xposition Yposition Zposition Zrotation Xrotation Yrotation 
						End Site
						{
							OFFSET 0.0 0.0 0.0
						}
					}
				}
			}
		}
		JOINT UpperLeg_R
		{
			OFFSET -2.19251 6.46944 0.0
			CHANNELS 6 Xposition Yposition Zposition Zrotation Xrotation Yrotation 
			JOINT LowerLeg_R
			{
				OFFSET -39.0811 -0.00228153 -0.0401928
				CHANNELS 6 Xposition Yposition Zposition Zrotation Xrotation Yrotation 
				JOINT Foot_R
				{
					OFFSET -40.9854 0.0 0.0
					CHANNELS 6 Xposition Yposition Zposition Zrotation Xrotation Yrotation 
					JOINT Toes_R
					{
						OFFSET -11.7543 0.0 0.0
						CHANNELS 6 Xposition Yposition Zposition Zrotation Xrotation Yrotation 
						End Site
						{
							OFFSET 0.0 0.0 0.0
						}
					}
				}
			}
		}
	}
}
MOTION
Frames:	8
Frame Time:	0.0333333
0.000000 0.000000 0.000000 0.000000 0.000000 -0.000000 -3.181890 91.650100 0.043893 85.854300 -0.177781 8.595270 15.735700 0.000005 -0.000001 88.981200 85.683600 -86.390200 8.984550 -0.406207 -0.000000 0.877676 -0.309062 5.180200 16.377300 -0.000001 -0.000001 11.674200 4.690520 -14.892900 6.456720 -0.000001 -0.000000 -4.706750 6.875380 -21.135900 12.994200 -0.242716 4.980390 -93.275600 8.519180 -68.876700 5.348090 -0.000007 -0.000001 -76.210500 -14.855400 -12.134100 24.328600 0.000019 0.000005 29.524400 -34.850500 -135.257000 22.291600 -0.000001 0.000005 39.393600 5.073800 5.706830 12.994500 -0.242716 -4.980390 87.864500 5.923200 -70.133600 -5.348130 -0.000001 -0.000004 -68.437000 32.541900 -4.077670 -24.328900 0.000322 -0.000009 0.998125 2.724150 -20.151200 -22.291500 -0.000108 -0.000004 -2.556110 5.302720 -0.004010 -2.192480 -6.469440 -0.000000 -175.483000 3.630740 1.263500 39.081100 -0.000007 -0.000012 0.385700 -0.714986 28.345600 40.985400 -0.000006 -0.000013 0.909883 3.684520 -76.769800 11.754300 -0.000000 0.000003 -0.000155 0.170193 -9.673740 -2.192510 6.469440 -0.000001 -172.050000 7.429760 -172.451000 -39.081100 -0.002282 -0.040193 0.186741 -0.571450 17.795100 -40.985400 0.000008 0.000006 5.736110 0.610841 -72.942400 -11.754300 -0.000006 -0.000006 -0.011577 0.282735 -5.083250
0.000000 0.000000 0.000000 0.000000 0.000000 -0.000000 -3.179940 91.667200 -0.005745 85.860800 -0.165307 8.461690 15.735700 0.000005 -0.000001 89.129500 85.673400 -86.534300 8.984550 -0.406207 -0.000000 0.897896 -0.286814 5.188470 16.377300 -0.000001 -0.000001 11.693900 4.693660 -14.794800 6.456720 -0.000001 -0.000000 -4.849080 6.989480 -21.162900 12.994200 -0.242716 4.980390 -93.277800 8.543280 -68.917400 5.348090 -0.000007 -0.000001 -76.004800 -14.934800 -12.082000 24.328600 0.000019 0.000005 29.775500 -34.821300 -134.944000 22.291600 -0.000001 0.000005 38.886800 5.067450 5.849850 12.994500 -0.242716 -4.980390 87.833400 6.001570 -70.107700 -5.348130 -0.000001 -0.000004 -68.478700 32.753800 -4.118510 -24.328900 0.000322 -0.000009 1.008370 2.764750 -20.066600 -22.291500 -0.000108 -0.000004 -2.591230 5.302170 0.011400 -2.192480 -6.469440 -0.000000 -175.473000 3.540300 1.120540 39.081100 -0.000007 -0.000012 0.390526 -0.725524 28.293100 40.985400 -0.000006 -0.000013 0.914457 3.713460 -76.752100 11.754300 -0.000000 0.000003 -0.000351 0.173339 -9.545940 -2.192510 6.469440 -0.000001 -172.094000 7.613930 -172.577000 -39.081100 -0.002282 -0.040193 0.184167 -0.566152 17.715000 -40.985400 0.000008 0.000006 5.764520 0.789770 -72.871700 -11.754300 -0.000006 -0.000006 -0.011349 0.281121 -5.149330
0.000000 0.000000 0.000000 0.000000 0.000000 -0.000000 -3.163170 91.692100 -0.054555 85.903400 -0.154031 8.326600 15.735700 0.000005 -0.000001 89.096400 85.649200 -86.497000 8.984550 -0.406207 -0.000000 0.946442 -0.291737 5.197080 16.377300 -0.000001 -0.000001 11.644000 4.727680 -14.746600 6.456720 -0.000001 -0.000000 -4.957680 7.050730 -21.109200 12.994200 -0.242716 4.980390 -93.307000 8.609420 -68.893700 5.348090 -0.000007 -0.000001 -75.761500 -15.079500 -12.036800 24.328600 0.000019 0.000005 30.035500 -34.726100 -134.575000 22.291600 -0.000001 0.000005 38.494500 5.067560 5.847370 12.994500 -0.242716 -4.980390 87.823200 6.028590 -70.103900 -5.348130 -0.000001 -0.000004 -68.556500 32.783700 -4.240590 -24.328900 0.000322 -0.000009 1.018390 2.814030 -19.923300 -22.291500 -0.000108 -0.000004 -2.615760 5.302240 0.009525 -2.192480 -6.469440 -0.000000 -175.512000 3.556530 0.999323 39.081100 -0.000007 -0.000012 0.381362 -0.712414 28.161500 40.985400 -0.000006 -0.000013 0.921876 3.724080 -76.580400 11.754300 -0.000000 0.000003 -0.000091 0.169147 -9.716240 -2.192510 6.469440 -0.000001 -172.143000 7.653920 -172.709000 -39.081100 -0.002282 -0.040193 0.183140 -0.566044 17.623700 -40.985400 0.000008 0.000006 5.766050 0.855163 -72.769000 -11.754300 -0.000006 -0.000006 -0.010942 0.278216 -5.268250
0.000000 0.000000 0.000000 0.000000 0.000000 -0.000000 -3.152160 91.720000 -0.099189 85.947000 -0.099702 8.238110 15.735700 0.000005 -0.000001 89.059000 85.619200 -86.471400 8.984550 -0.406207 -0.000000 1.006320 -0.296341 5.173580 16.377300 -0.000001 -0.000001 11.619600 4.713150 -14.569000 6.456720 -0.000001 -0.000000 -5.017740 7.093350 -21.069500 12.994200 -0.242716 4.980390 -93.312400 8.622370 -68.891100 5.348090 -0.000007 -0.000001 -75.595900 -15.117500 -11.952300 24.328600 0.000019 0.000005 30.158800 -34.347200 -134.157000 22.291600 -0.000001 0.000005 38.267500 5.072000 5.748260 12.994500 -0.242716 -4.980390 87.789700 6.114870 -70.082900 -5.348130 -0.000001 -0.000004 -68.560400 32.912200 -4.269000 -24.328900 0.000322 -0.000009 1.000600 2.768720 -19.897900 -22.291500 -0.000108 -0.000004 -2.640580 5.302460 0.003440 -2.192480 -6.469440 -0.000000 -175.555000 3.518610 0.940915 39.081100 -0.000007 -0.000012 0.380418 -0.714682 28.026900 40.985400 -0.000006 -0.000013 0.937168 3.763880 -76.555600 11.754300 -0.000000 0.000003 -0.000411 0.174282 -9.507640 -2.192510 6.469440 -0.000001 -172.206000 7.745590 -172.750000 -39.081100 -0.002282 -0.040193 0.179900 -0.560717 17.479900 -40.985400 0.000008 0.000006 5.765370 0.918792 -72.719700 -11.754300 -0.000006 -0.000006 -0.011339 0.281053 -5.152120
0.000000 0.000000 0.000000 0.000000 0.000000 -0.000000 -3.139350 91.745200 -0.136000 85.995200 -0.050008 8.120900 15.735700 0.000005 -0.000001 88.935000 85.586600 -86.355100 8.984550 -0.406207 -0.000000 1.071660 -0.314577 5.158530 16.377300 -0.000001 -0.000001 11.587700 4.689920 -14.449700 6.456720 -0.000001 -0.000000 -5.121400 7.060770 -20.941900 12.994200 -0.242716 4.980390 -93.326300 8.657970 -68.888800 5.348090 -0.000007 -0.000001 -75.398700 -15.312400 -11.819700 24.328600 0.000019 0.000005 30.021500 -33.639800 -133.791000 22.291600 -0.000001 0.000005 37.696000 5.071160 5.766950 12.994500 -0.242716 -4.980390 87.771100 6.171370 -70.097200 -5.348130 -0.000001 -0.000004 -68.553300 32.974400 -4.364840 -24.328900 0.000322 -0.000009 0.997553 2.772890 -19.814400 -22.291500 -0.000108 -0.000004 -2.571870 5.302970 -0.010988 -2.192480 -6.469440 -0.000000 -175.600000 3.494410 0.854337 39.081100 -0.000007 -0.000012 0.377226 -0.713269 27.873900 40.985400 -0.000006 -0.000013 0.965124 3.829500 -76.359900 11.754300 -0.000000 0.000003 0.000010 0.167463 -9.784610 -2.192510 6.469440 -0.000001 -172.300000 7.924020 -172.840000 -39.081100 -0.002282 -0.040193 0.176553 -0.553838 17.368600 -40.985400 0.000008 0.000006 5.776870 1.073410 -72.644600 -11.754300 -0.000006 -0.000006 -0.011234 0.280308 -5.182580
0.000000 0.000000 0.000000 0.000000 0.000000 -0.000000 -3.123040 91.784500 -0.195655 86.041900 0.022609 7.921730 15.735700 0.000005 -0.000001 88.995000 85.580200 -86.439000 8.984550 -0.406207 -0.000000 1.084060 -0.303889 5.110760 16.377300 -0.000001 -0.000001 11.498700 4.642480 -14.212500 6.456720 -0.000001 -0.000000 -5.200760 6.982120 -20.813100 12.994200 -0.242716 4.980390 -93.325200 8.671470 -68.925500 5.348090 -0.000007 -0.000001 -75.153600 -15.370400 -11.698200 24.328600 0.000019 0.000005 30.720100 -33.294700 -132.732000 22.291600 -0.000001 0.000005 37.560800 5.062820 5.953050 12.994500 -0.242716 -4.980390 87.729400 6.280130 -70.075900 -5.348130 -0.000001 -0.000004 -68.491900 33.109000 -4.445660 -24.328900 0.000322 -0.000009 0.959222 2.677710 -19.737100 -22.291500 -0.000108 -0.000004 -2.519630 5.300470 0.059404 -2.192480 -6.469440 -0.000000 -175.629000 3.486720 0.701799 39.081100 -0.000007 -0.000012 0.367670 -0.701126 27.673300 40.985400 -0.000006 -0.000013 0.970917 3.875210 -76.249400 11.754300 -0.000000 0.000003 -0.000338 0.173137 -9.554170 -2.192510 6.469440 -0.000001 -172.348000 7.986490 -172.986000 -39.081100 -0.002282 -0.040193 0.172910 -0.548832 17.170900 -40.985400 0.000008 0.000006 5.772100 1.131900 -72.567400 -11.754300 -0.000006 -0.000006 -0.011435 0.281732 -5.124280
0.000000 0.000000 0.000000 0.000000 0.000000 -0.000000 -3.111640 91.816200 -0.261753 86.096800 0.154802 7.759130 15.735700 0.000005 -0.000001 88.756800 85.555300 -86.222600 8.984550 -0.406207 -0.000000 1.133920 -0.339327 5.067400 16.377300 -0.000001 -0.000001 11.399000 4.585700 -13.959300 6.456720 -0.000001 -0.000000 -5.322350 6.930760 -20.678300 12.994200 -0.242716 4.980390 -93.351000 8.745290 -68.937600 5.348090 -0.000007 -0.000001 -74.919000 -15.559600 -11.548500 24.328600 0.000019 0.000005 31.400600 -32.675000 -131.491000 22.291600 -0.000001 0.000005 36.956300 5.065640 5.890770 12.994500 -0.242716 -4.980390 87.695200 6.367950 -70.055500 -5.348130 -0.000001 -0.000004 -68.414500 33.121400 -4.584490 -24.328900 0.000322 -0.000009 0.958063 2.700950 -19.558500 -22.291500 -0.000108 -0.000004 -2.451690 5.301750 0.023479 -2.192480 -6.469440 -0.000000 -175.702000 3.582610 0.532477 39.081100 -0.000007 -0.000012 0.365274 -0.701188 27.517500 40.985400 -0.000006 -0.000013 0.980814 3.882720 -76.047500 11.754300 -0.000000 0.000003 -0.000060 0.168630 -9.737240 -2.192510 6.469440 -0.000001 -172.382000 8.011220 -173.138000 -39.081100 -0.002282 -0.040193 0.169860 -0.543909 17.023700 -40.985400 0.000008 0.000006 5.748310 1.048970 -72.424500 -11.754300 -0.000006 -0.000006 -0.011005 0.278666 -5.249790
0.000000 0.000000 0.000000 0.000000 0.000000 -0.000000 -3.086180 91.862400 -0.342675 86.169900 0.242901 7.560280 15.735700 0.000005 -0.000001 88.877700 85.534900 -86.388000 8.984550 -0.406207 -0.000000 1.174320 -0.317923 4.978450 16.377300 -0.000001 -0.000001 11.239200 4.513190 -13.618900 6.456720 -0.000001 -0.000000 -5.480020 6.776030 -20.398900 12.994200 -0.242716 4.980390 -93.335800 8.752770 -69.041500 5.348090 -0.000007 -0.000001 -74.690700 -15.673700 -11.237700 24.328600 0.000019 0.000005 32.227400 -32.054200 -130.093000 22.291600 -0.000001 0.000005 35.971500 5.052030 6.191440 12.994500 -0.242716 -4.980390 87.650500 6.490310 -70.050500 -5.348130 -0.000001 -0.000004 -68.292400 33.106100 -4.728040 -24.328900 0.000322 -0.000009 0.953613 2.718000 -19.361800 -22.291500 -0.000108 -0.000004 -2.572320 5.301040 0.043246 -2.192480 -6.469440 -0.000000 -175.785000 3.608770 0.376499 39.081100 -0.000007 -0.000012 0.357978 -0.693984 27.286900 40.985400 -0.000006 -0.000013 0.998377 3.911310 -75.946100 11.754300 -0.000000 0.000003 -0.000381 0.173810 -9.526840 -2.192510 6.469440 -0.000001 -172.451000 8.087570 -173.285000 -39.081100 -0.002282 -0.040193 0.167049 -0.542300 16.799500 -40.985400 0.000008 0.000006 5.743790 1.095770 -72.312200 -11.754300 -0.000006 -0.000006 -0.011085 0.279244 -5.226170
